G04*
G04 #@! TF.GenerationSoftware,Altium Limited,Altium Designer,24.6.1 (21)*
G04*
G04 Layer_Color=2752767*
%FSLAX42Y42*%
%MOMM*%
G71*
G04*
G04 #@! TF.SameCoordinates,A6C07601-EB4F-4E80-B680-5A307C7D7090*
G04*
G04*
G04 #@! TF.FilePolarity,Positive*
G04*
G01*
G75*
%ADD88C,0.07*%
%ADD89C,0.05*%
D88*
X757Y3188D02*
G03*
X757Y3188I-20J0D01*
G01*
X503D02*
G03*
X503Y3188I-20J0D01*
G01*
X249D02*
G03*
X249Y3188I-20J0D01*
G01*
X757Y2603D02*
G03*
X757Y2603I-20J0D01*
G01*
X503D02*
G03*
X503Y2603I-20J0D01*
G01*
X249D02*
G03*
X249Y2603I-20J0D01*
G01*
X4754Y1466D02*
G03*
X4754Y1466I-20J0D01*
G01*
Y2342D02*
G03*
X4754Y2342I-20J0D01*
G01*
Y3218D02*
G03*
X4754Y3218I-20J0D01*
G01*
X249Y2896D02*
G03*
X249Y2896I-20J0D01*
G01*
X4754Y1174D02*
G03*
X4754Y1174I-20J0D01*
G01*
Y3511D02*
G03*
X4754Y3511I-20J0D01*
G01*
X249Y3772D02*
G03*
X249Y3772I-20J0D01*
G01*
X236Y1503D02*
G03*
X236Y1503I-20J0D01*
G01*
Y1210D02*
G03*
X236Y1210I-20J0D01*
G01*
X4754Y2050D02*
G03*
X4754Y2050I-20J0D01*
G01*
Y2634D02*
G03*
X4754Y2634I-20J0D01*
G01*
X249Y3480D02*
G03*
X249Y3480I-20J0D01*
G01*
X4754Y882D02*
G03*
X4754Y882I-20J0D01*
G01*
Y1758D02*
G03*
X4754Y1758I-20J0D01*
G01*
Y2926D02*
G03*
X4754Y2926I-20J0D01*
G01*
X236Y1795D02*
G03*
X236Y1795I-20J0D01*
G01*
Y918D02*
G03*
X236Y918I-20J0D01*
G01*
X490D02*
G03*
X490Y918I-20J0D01*
G01*
Y1795D02*
G03*
X490Y1795I-20J0D01*
G01*
Y1503D02*
G03*
X490Y1503I-20J0D01*
G01*
Y1210D02*
G03*
X490Y1210I-20J0D01*
G01*
X4500Y2342D02*
G03*
X4500Y2342I-20J0D01*
G01*
X503Y2896D02*
G03*
X503Y2896I-20J0D01*
G01*
X4500Y3218D02*
G03*
X4500Y3218I-20J0D01*
G01*
Y1466D02*
G03*
X4500Y1466I-20J0D01*
G01*
X503Y3772D02*
G03*
X503Y3772I-20J0D01*
G01*
Y3480D02*
G03*
X503Y3480I-20J0D01*
G01*
X4500Y882D02*
G03*
X4500Y882I-20J0D01*
G01*
Y1174D02*
G03*
X4500Y1174I-20J0D01*
G01*
Y3511D02*
G03*
X4500Y3511I-20J0D01*
G01*
Y2634D02*
G03*
X4500Y2634I-20J0D01*
G01*
Y2050D02*
G03*
X4500Y2050I-20J0D01*
G01*
Y1758D02*
G03*
X4500Y1758I-20J0D01*
G01*
Y2926D02*
G03*
X4500Y2926I-20J0D01*
G01*
X744Y918D02*
G03*
X744Y918I-20J0D01*
G01*
X4246Y1174D02*
G03*
X4246Y1174I-20J0D01*
G01*
Y2050D02*
G03*
X4246Y2050I-20J0D01*
G01*
X744Y1503D02*
G03*
X744Y1503I-20J0D01*
G01*
Y1210D02*
G03*
X744Y1210I-20J0D01*
G01*
Y1795D02*
G03*
X744Y1795I-20J0D01*
G01*
X4246Y882D02*
G03*
X4246Y882I-20J0D01*
G01*
Y1466D02*
G03*
X4246Y1466I-20J0D01*
G01*
Y1758D02*
G03*
X4246Y1758I-20J0D01*
G01*
Y2342D02*
G03*
X4246Y2342I-20J0D01*
G01*
Y2634D02*
G03*
X4246Y2634I-20J0D01*
G01*
Y2926D02*
G03*
X4246Y2926I-20J0D01*
G01*
Y3218D02*
G03*
X4246Y3218I-20J0D01*
G01*
Y3511D02*
G03*
X4246Y3511I-20J0D01*
G01*
X757Y2896D02*
G03*
X757Y2896I-20J0D01*
G01*
Y3772D02*
G03*
X757Y3772I-20J0D01*
G01*
Y3480D02*
G03*
X757Y3480I-20J0D01*
G01*
D89*
X4107Y4209D02*
Y4249D01*
X4148D01*
Y4209D01*
X4107D01*
Y4463D02*
Y4503D01*
X4148D01*
Y4463D01*
X4107D01*
Y3955D02*
Y3995D01*
X4148D01*
Y3955D01*
X4107D01*
Y4717D02*
Y4757D01*
X4148D01*
Y4717D01*
X4107D01*
X2999Y1264D02*
X2979Y1305D01*
X3019D01*
X2999Y1264D01*
X4181Y248D02*
X4160Y288D01*
X4201D01*
X4181Y248D01*
X1016Y3625D02*
X996Y3665D01*
X1036D01*
X1016Y3625D01*
X3305Y1472D02*
X3285Y1513D01*
X3325D01*
X3305Y1472D01*
X3175Y2139D02*
X3155Y2179D01*
X3195D01*
X3175Y2139D01*
X2997D02*
X2977Y2179D01*
X3018D01*
X2997Y2139D01*
X3175Y2253D02*
X3155Y2294D01*
X3195D01*
X3175Y2253D01*
X2997D02*
X2977Y2294D01*
X3018D01*
X2997Y2253D01*
X1439Y1157D02*
X1419Y1198D01*
X1459D01*
X1439Y1157D01*
X2743Y2469D02*
X2723Y2510D01*
X2764D01*
X2743Y2469D01*
X4432Y3752D02*
X4412Y3792D01*
X4453D01*
X4432Y3752D01*
X1321Y3256D02*
X1300Y3297D01*
X1341D01*
X1321Y3256D01*
Y3129D02*
X1300Y3170D01*
X1341D01*
X1321Y3129D01*
X3124Y754D02*
X3104Y795D01*
X3145D01*
X3124Y754D01*
X3239Y1123D02*
X3218Y1163D01*
X3259D01*
X3239Y1123D01*
X1219Y2685D02*
X1199Y2725D01*
X1240D01*
X1219Y2685D01*
X1245Y3637D02*
X1224Y3678D01*
X1265D01*
X1245Y3637D01*
X2718Y2113D02*
X2697Y2154D01*
X2738D01*
X2718Y2113D01*
X1295Y4018D02*
X1275Y4059D01*
X1316D01*
X1295Y4018D01*
X3759Y119D02*
X3739Y160D01*
X3780D01*
X3759Y119D01*
X3416Y3891D02*
X3396Y3932D01*
X3437D01*
X3416Y3891D01*
X3414Y3766D02*
X3394Y3807D01*
X3435D01*
X3414Y3766D01*
X3759Y3777D02*
X3739Y3818D01*
X3780D01*
X3759Y3777D01*
X3302Y2875D02*
X3282Y2916D01*
X3322D01*
X3302Y2875D01*
X3556Y1326D02*
X3536Y1367D01*
X3576D01*
X3556Y1326D01*
X3480Y1250D02*
X3459Y1290D01*
X3500D01*
X3480Y1250D01*
X1842Y2355D02*
X1821Y2395D01*
X1862D01*
X1842Y2355D01*
X1994D02*
X1974Y2395D01*
X2014D01*
X1994Y2355D01*
X2984Y2863D02*
X2964Y2903D01*
X3005D01*
X2984Y2863D01*
X2718Y2253D02*
X2697Y2294D01*
X2738D01*
X2718Y2253D01*
X1346Y2189D02*
X1326Y2230D01*
X1367D01*
X1346Y2189D01*
Y2101D02*
X1326Y2141D01*
X1367D01*
X1346Y2101D01*
X1435D02*
X1415Y2141D01*
X1455D01*
X1435Y2101D01*
Y2189D02*
X1415Y2230D01*
X1455D01*
X1435Y2189D01*
X2756Y1669D02*
X2736Y1709D01*
X2776D01*
X2756Y1669D01*
X3442Y1542D02*
X3421Y1582D01*
X3462D01*
X3442Y1542D01*
X3188Y2875D02*
X3167Y2916D01*
X3208D01*
X3188Y2875D01*
X4737Y4272D02*
X4717Y4313D01*
X4757D01*
X4737Y4272D01*
Y4006D02*
X4717Y4046D01*
X4757D01*
X4737Y4006D01*
X967Y4096D02*
X947Y4137D01*
X987D01*
X967Y4096D01*
X243Y4185D02*
X223Y4226D01*
X264D01*
X243Y4185D01*
X446Y2255D02*
X426Y2296D01*
X467D01*
X446Y2255D01*
X269D02*
X248Y2296D01*
X289D01*
X269Y2255D01*
X2136Y731D02*
X2115Y772D01*
X2156D01*
X2136Y731D01*
X711Y399D02*
X691Y439D01*
X732D01*
X711Y399D01*
Y170D02*
X691Y211D01*
X732D01*
X711Y170D01*
X1818Y617D02*
X1798Y657D01*
X1838D01*
X1818Y617D01*
X1577Y426D02*
X1556Y467D01*
X1597D01*
X1577Y426D01*
X4001Y132D02*
X3980Y173D01*
X4021D01*
X4001Y132D01*
Y348D02*
X3980Y389D01*
X4021D01*
X4001Y348D01*
X1372Y1681D02*
X1351Y1722D01*
X1392D01*
X1372Y1681D01*
Y1516D02*
X1351Y1557D01*
X1392D01*
X1372Y1516D01*
X1460Y1605D02*
X1440Y1646D01*
X1481D01*
X1460Y1605D01*
Y1453D02*
X1440Y1494D01*
X1481D01*
X1460Y1453D01*
X1346Y996D02*
X1326Y1036D01*
X1367D01*
X1346Y996D01*
X2667Y1605D02*
X2647Y1646D01*
X2687D01*
X2667Y1605D01*
X1702Y3040D02*
X1681Y3081D01*
X1722D01*
X1702Y3040D01*
X940Y107D02*
X919Y147D01*
X960D01*
X940Y107D01*
X1448Y602D02*
X1427Y643D01*
X1468D01*
X1448Y602D01*
X1588D02*
X1567Y643D01*
X1608D01*
X1588Y602D01*
X2146Y1123D02*
X2126Y1163D01*
X2167D01*
X2146Y1123D01*
X2259Y1248D02*
X2239Y1289D01*
X2279D01*
X2259Y1248D01*
X1537Y1351D02*
X1516Y1392D01*
X1557D01*
X1537Y1351D01*
Y1516D02*
X1516Y1557D01*
X1557D01*
X1537Y1516D01*
Y1681D02*
X1516Y1722D01*
X1557D01*
X1537Y1681D01*
X3404Y1389D02*
X3383Y1430D01*
X3424D01*
X3404Y1389D01*
X102Y2088D02*
X81Y2129D01*
X122D01*
X102Y2088D01*
X2831Y1455D02*
X2810Y1496D01*
X2851D01*
X2831Y1455D01*
Y1375D02*
X2810Y1416D01*
X2851D01*
X2831Y1375D01*
Y1295D02*
X2810Y1336D01*
X2851D01*
X2831Y1295D01*
X2631Y1455D02*
X2610Y1496D01*
X2651D01*
X2631Y1455D01*
X2731D02*
X2710Y1496D01*
X2751D01*
X2731Y1455D01*
Y1375D02*
X2710Y1416D01*
X2751D01*
X2731Y1375D01*
Y1295D02*
X2710Y1336D01*
X2751D01*
X2731Y1295D01*
X2631Y1375D02*
X2610Y1416D01*
X2651D01*
X2631Y1375D01*
Y1295D02*
X2610Y1336D01*
X2651D01*
X2631Y1295D01*
X2504Y3848D02*
X2484Y3889D01*
X2525D01*
X2504Y3848D01*
X2324Y3851D02*
X2304Y3891D01*
X2344D01*
X2324Y3851D01*
X2141D02*
X2121Y3891D01*
X2162D01*
X2141Y3851D01*
X2504Y4034D02*
X2484Y4074D01*
X2525D01*
X2504Y4034D01*
X2324Y4036D02*
X2304Y4077D01*
X2344D01*
X2324Y4036D01*
X2141D02*
X2121Y4077D01*
X2162D01*
X2141Y4036D01*
X2504Y4216D02*
X2484Y4257D01*
X2525D01*
X2504Y4216D01*
X2324Y4219D02*
X2304Y4260D01*
X2344D01*
X2324Y4219D01*
X2141D02*
X2121Y4260D01*
X2162D01*
X2141Y4219D01*
X838Y4653D02*
X818Y4694D01*
X859D01*
X838Y4653D01*
X1003Y4323D02*
X983Y4364D01*
X1024D01*
X1003Y4323D01*
X889Y4361D02*
X869Y4402D01*
X909D01*
X889Y4361D01*
X1499Y2456D02*
X1478Y2497D01*
X1519D01*
X1499Y2456D01*
Y2545D02*
X1478Y2586D01*
X1519D01*
X1499Y2545D01*
Y2634D02*
X1478Y2675D01*
X1519D01*
X1499Y2634D01*
Y2723D02*
X1478Y2764D01*
X1519D01*
X1499Y2723D01*
X3416Y4780D02*
X3396Y4821D01*
X3437D01*
X3416Y4780D01*
X1346Y4793D02*
X1326Y4834D01*
X1367D01*
X1346Y4793D01*
X635Y4653D02*
X615Y4694D01*
X655D01*
X635Y4653D01*
X699Y4793D02*
X678Y4834D01*
X719D01*
X699Y4793D01*
X851D02*
X831Y4834D01*
X871D01*
X851Y4793D01*
X127Y4374D02*
X107Y4415D01*
X147D01*
X127Y4374D01*
X3874Y4755D02*
X3853Y4796D01*
X3894D01*
X3874Y4755D01*
X3175Y996D02*
X3155Y1036D01*
X3195D01*
X3175Y996D01*
X1600Y2723D02*
X1580Y2764D01*
X1621D01*
X1600Y2723D01*
X1702D02*
X1681Y2764D01*
X1722D01*
X1702Y2723D01*
X1930D02*
X1910Y2764D01*
X1951D01*
X1930Y2723D01*
X1816D02*
X1796Y2764D01*
X1836D01*
X1816Y2723D01*
X2172D02*
X2151Y2764D01*
X2192D01*
X2172Y2723D01*
X1600Y2456D02*
X1580Y2497D01*
X1621D01*
X1600Y2456D01*
X1702Y2545D02*
X1681Y2586D01*
X1722D01*
X1702Y2545D01*
X2172Y2532D02*
X2151Y2573D01*
X2192D01*
X2172Y2532D01*
Y2634D02*
X2151Y2675D01*
X2192D01*
X2172Y2634D01*
X1600Y2545D02*
X1580Y2586D01*
X1621D01*
X1600Y2545D01*
X2032Y2723D02*
X2012Y2764D01*
X2052D01*
X2032Y2723D01*
X1600Y2634D02*
X1580Y2675D01*
X1621D01*
X1600Y2634D01*
X1702D02*
X1681Y2675D01*
X1722D01*
X1702Y2634D01*
X2146Y1034D02*
X2126Y1074D01*
X2167D01*
X2146Y1034D01*
X1346Y3764D02*
X1326Y3805D01*
X1367D01*
X1346Y3764D01*
Y3383D02*
X1326Y3424D01*
X1367D01*
X1346Y3383D01*
Y3510D02*
X1326Y3551D01*
X1367D01*
X1346Y3510D01*
Y4145D02*
X1326Y4186D01*
X1367D01*
X1346Y4145D01*
X2743Y335D02*
X2723Y376D01*
X2764D01*
X2743Y335D01*
X2633Y545D02*
X2613Y586D01*
X2654D01*
X2633Y545D01*
X2743D02*
X2723Y586D01*
X2764D01*
X2743Y545D01*
X2853D02*
X2833Y586D01*
X2874D01*
X2853Y545D01*
X2633Y435D02*
X2613Y476D01*
X2654D01*
X2633Y435D01*
X2743D02*
X2723Y476D01*
X2764D01*
X2743Y435D01*
X2853D02*
X2833Y476D01*
X2874D01*
X2853Y435D01*
X2633Y335D02*
X2613Y376D01*
X2654D01*
X2633Y335D01*
X2853D02*
X2833Y376D01*
X2874D01*
X2853Y335D01*
X2633Y235D02*
X2613Y276D01*
X2654D01*
X2633Y235D01*
X2743D02*
X2723Y276D01*
X2764D01*
X2743Y235D01*
X2853D02*
X2833Y276D01*
X2874D01*
X2853Y235D01*
X2633Y125D02*
X2613Y166D01*
X2654D01*
X2633Y125D01*
X2743D02*
X2723Y166D01*
X2764D01*
X2743Y125D01*
X2853D02*
X2833Y166D01*
X2874D01*
X2853Y125D01*
X1867Y1250D02*
X1847Y1290D01*
X1887D01*
X1867Y1250D01*
X3442Y4539D02*
X3421Y4580D01*
X3462D01*
X3442Y4539D01*
X3747Y4323D02*
X3726Y4364D01*
X3767D01*
X3747Y4323D01*
X3442Y4666D02*
X3421Y4707D01*
X3462D01*
X3442Y4666D01*
X2294Y125D02*
X2274Y166D01*
X2315D01*
X2294Y125D01*
X2184D02*
X2164Y166D01*
X2205D01*
X2184Y125D01*
X2074D02*
X2054Y166D01*
X2095D01*
X2074Y125D01*
X2294Y235D02*
X2274Y276D01*
X2315D01*
X2294Y235D01*
X2184D02*
X2164Y276D01*
X2205D01*
X2184Y235D01*
X2074D02*
X2054Y276D01*
X2095D01*
X2074Y235D01*
X2294Y335D02*
X2274Y376D01*
X2315D01*
X2294Y335D01*
X2074D02*
X2054Y376D01*
X2095D01*
X2074Y335D01*
X2294Y435D02*
X2274Y476D01*
X2315D01*
X2294Y435D01*
X2184D02*
X2164Y476D01*
X2205D01*
X2184Y435D01*
X2074D02*
X2054Y476D01*
X2095D01*
X2074Y435D01*
X2294Y545D02*
X2274Y586D01*
X2315D01*
X2294Y545D01*
X2184D02*
X2164Y586D01*
X2205D01*
X2184Y545D01*
X2074D02*
X2054Y586D01*
X2095D01*
X2074Y545D01*
X2184Y335D02*
X2164Y376D01*
X2205D01*
X2184Y335D01*
X300Y4680D02*
X310Y4690D01*
X320D01*
X310Y4700D01*
X320Y4710D01*
X310D01*
X300Y4720D01*
X290Y4710D01*
X280D01*
X290Y4700D01*
X280Y4690D01*
X290D01*
X300Y4680D01*
Y280D02*
X310Y290D01*
X320D01*
X310Y300D01*
X320Y310D01*
X310D01*
X300Y320D01*
X290Y310D01*
X280D01*
X290Y300D01*
X280Y290D01*
X290D01*
X300Y280D01*
X4700D02*
X4710Y290D01*
X4720D01*
X4710Y300D01*
X4720Y310D01*
X4710D01*
X4700Y320D01*
X4690Y310D01*
X4680D01*
X4690Y300D01*
X4680Y290D01*
X4690D01*
X4700Y280D01*
Y4680D02*
X4710Y4690D01*
X4720D01*
X4710Y4700D01*
X4720Y4710D01*
X4710D01*
X4700Y4720D01*
X4690Y4710D01*
X4680D01*
X4690Y4700D01*
X4680Y4690D01*
X4690D01*
X4700Y4680D01*
M02*
