G04*
G04 #@! TF.GenerationSoftware,Altium Limited,Altium Designer,24.6.1 (21)*
G04*
G04 Layer_Physical_Order=2*
G04 Layer_Color=14028991*
%FSLAX42Y42*%
%MOMM*%
G71*
G04*
G04 #@! TF.SameCoordinates,A6C07601-EB4F-4E80-B680-5A307C7D7090*
G04*
G04*
G04 #@! TF.FilePolarity,Positive*
G04*
G01*
G75*
%ADD13C,0.50*%
%ADD65R,1.65X1.65*%
%ADD66C,1.73*%
%ADD68C,3.00*%
G36*
X4978Y38D02*
X38D01*
X25Y4944D01*
X34Y4953D01*
X1410D01*
Y4851D01*
X3365D01*
Y4953D01*
X4978D01*
Y38D01*
D02*
G37*
%LPC*%
G36*
X4143Y4853D02*
X4142D01*
Y4752D01*
X4244D01*
Y4752D01*
X4236Y4782D01*
X4221Y4808D01*
X4199Y4830D01*
X4172Y4845D01*
X4143Y4853D01*
D02*
G37*
G36*
X4112D02*
X4112D01*
X4083Y4845D01*
X4056Y4830D01*
X4034Y4808D01*
X4019Y4782D01*
X4011Y4752D01*
Y4752D01*
X4112D01*
Y4853D01*
D02*
G37*
G36*
X4718Y4880D02*
X4715D01*
Y4715D01*
X4880D01*
Y4718D01*
X4873Y4753D01*
X4860Y4785D01*
X4840Y4815D01*
X4815Y4840D01*
X4785Y4860D01*
X4753Y4873D01*
X4718Y4880D01*
D02*
G37*
G36*
X4685D02*
X4682D01*
X4647Y4873D01*
X4615Y4860D01*
X4585Y4840D01*
X4560Y4815D01*
X4540Y4785D01*
X4527Y4753D01*
X4520Y4718D01*
Y4715D01*
X4685D01*
Y4880D01*
D02*
G37*
G36*
X318D02*
X315D01*
Y4715D01*
X480D01*
Y4718D01*
X473Y4753D01*
X460Y4785D01*
X440Y4815D01*
X415Y4840D01*
X385Y4860D01*
X353Y4873D01*
X318Y4880D01*
D02*
G37*
G36*
X285D02*
X282D01*
X247Y4873D01*
X215Y4860D01*
X185Y4840D01*
X160Y4815D01*
X140Y4785D01*
X127Y4753D01*
X120Y4718D01*
Y4715D01*
X285D01*
Y4880D01*
D02*
G37*
G36*
X3451Y4731D02*
X3433D01*
X3416Y4724D01*
X3404Y4712D01*
X3397Y4695D01*
Y4677D01*
X3404Y4661D01*
X3416Y4648D01*
X3433Y4641D01*
X3451D01*
X3467Y4648D01*
X3480Y4661D01*
X3487Y4677D01*
Y4695D01*
X3480Y4712D01*
X3467Y4724D01*
X3451Y4731D01*
D02*
G37*
G36*
X847Y4719D02*
X829D01*
X813Y4712D01*
X800Y4699D01*
X793Y4683D01*
Y4665D01*
X800Y4648D01*
X813Y4635D01*
X829Y4629D01*
X847D01*
X864Y4635D01*
X876Y4648D01*
X883Y4665D01*
Y4683D01*
X876Y4699D01*
X864Y4712D01*
X847Y4719D01*
D02*
G37*
G36*
X4244Y4722D02*
X4142D01*
Y4621D01*
X4143D01*
X4172Y4629D01*
X4199Y4644D01*
X4221Y4666D01*
X4236Y4692D01*
X4244Y4722D01*
Y4722D01*
D02*
G37*
G36*
X4112D02*
X4011D01*
Y4722D01*
X4019Y4692D01*
X4034Y4666D01*
X4056Y4644D01*
X4083Y4629D01*
X4112Y4621D01*
X4112D01*
Y4722D01*
D02*
G37*
G36*
X4880Y4685D02*
X4715D01*
Y4520D01*
X4718D01*
X4753Y4527D01*
X4785Y4540D01*
X4815Y4560D01*
X4840Y4585D01*
X4860Y4615D01*
X4873Y4647D01*
X4880Y4682D01*
Y4685D01*
D02*
G37*
G36*
X4685D02*
X4520D01*
Y4682D01*
X4527Y4647D01*
X4540Y4615D01*
X4560Y4585D01*
X4585Y4560D01*
X4615Y4540D01*
X4647Y4527D01*
X4682Y4520D01*
X4685D01*
Y4685D01*
D02*
G37*
G36*
X480D02*
X315D01*
Y4520D01*
X318D01*
X353Y4527D01*
X385Y4540D01*
X415Y4560D01*
X440Y4585D01*
X460Y4615D01*
X473Y4647D01*
X480Y4682D01*
Y4685D01*
D02*
G37*
G36*
X285D02*
X120D01*
Y4682D01*
X127Y4647D01*
X140Y4615D01*
X160Y4585D01*
X185Y4560D01*
X215Y4540D01*
X247Y4527D01*
X282Y4520D01*
X285D01*
Y4685D01*
D02*
G37*
G36*
X3451Y4604D02*
X3433D01*
X3416Y4597D01*
X3404Y4585D01*
X3397Y4568D01*
Y4550D01*
X3404Y4534D01*
X3416Y4521D01*
X3433Y4514D01*
X3451D01*
X3467Y4521D01*
X3480Y4534D01*
X3487Y4550D01*
Y4568D01*
X3480Y4585D01*
X3467Y4597D01*
X3451Y4604D01*
D02*
G37*
G36*
X4143Y4599D02*
X4112D01*
X4083Y4591D01*
X4056Y4576D01*
X4034Y4554D01*
X4019Y4528D01*
X4011Y4498D01*
Y4468D01*
X4019Y4438D01*
X4034Y4412D01*
X4056Y4390D01*
X4083Y4375D01*
X4112Y4367D01*
X4143D01*
X4172Y4375D01*
X4199Y4390D01*
X4221Y4412D01*
X4236Y4438D01*
X4244Y4468D01*
Y4498D01*
X4236Y4528D01*
X4221Y4554D01*
X4199Y4576D01*
X4172Y4591D01*
X4143Y4599D01*
D02*
G37*
G36*
X898Y4426D02*
X880D01*
X864Y4420D01*
X851Y4407D01*
X844Y4390D01*
Y4373D01*
X851Y4356D01*
X864Y4343D01*
X880Y4337D01*
X898D01*
X914Y4343D01*
X927Y4356D01*
X934Y4373D01*
Y4390D01*
X927Y4407D01*
X914Y4420D01*
X898Y4426D01*
D02*
G37*
G36*
X1012Y4388D02*
X994D01*
X978Y4382D01*
X965Y4369D01*
X958Y4352D01*
Y4334D01*
X965Y4318D01*
X978Y4305D01*
X994Y4298D01*
X1012D01*
X1029Y4305D01*
X1041Y4318D01*
X1048Y4334D01*
Y4352D01*
X1041Y4369D01*
X1029Y4382D01*
X1012Y4388D01*
D02*
G37*
G36*
X1355Y4211D02*
X1337D01*
X1321Y4204D01*
X1308Y4191D01*
X1301Y4175D01*
Y4157D01*
X1308Y4140D01*
X1321Y4127D01*
X1337Y4121D01*
X1355D01*
X1372Y4127D01*
X1384Y4140D01*
X1391Y4157D01*
Y4175D01*
X1384Y4191D01*
X1372Y4204D01*
X1355Y4211D01*
D02*
G37*
G36*
X4143Y4345D02*
X4112D01*
X4083Y4337D01*
X4056Y4322D01*
X4034Y4300D01*
X4019Y4274D01*
X4011Y4244D01*
Y4214D01*
X4019Y4184D01*
X4034Y4158D01*
X4056Y4136D01*
X4083Y4121D01*
X4112Y4113D01*
X4143D01*
X4172Y4121D01*
X4199Y4136D01*
X4221Y4158D01*
X4236Y4184D01*
X4244Y4214D01*
Y4244D01*
X4236Y4274D01*
X4221Y4300D01*
X4199Y4322D01*
X4172Y4337D01*
X4143Y4345D01*
D02*
G37*
G36*
X1304Y4084D02*
X1286D01*
X1270Y4077D01*
X1257Y4064D01*
X1250Y4048D01*
Y4030D01*
X1257Y4013D01*
X1270Y4000D01*
X1286Y3994D01*
X1304D01*
X1321Y4000D01*
X1334Y4013D01*
X1340Y4030D01*
Y4048D01*
X1334Y4064D01*
X1321Y4077D01*
X1304Y4084D01*
D02*
G37*
G36*
X3425Y3957D02*
X3407D01*
X3391Y3950D01*
X3378Y3937D01*
X3371Y3921D01*
Y3903D01*
X3378Y3886D01*
X3391Y3873D01*
X3407Y3867D01*
X3425D01*
X3442Y3873D01*
X3454Y3886D01*
X3461Y3903D01*
Y3921D01*
X3454Y3937D01*
X3442Y3950D01*
X3425Y3957D01*
D02*
G37*
G36*
X4244Y4091D02*
X4011D01*
Y3859D01*
X4244D01*
Y4091D01*
D02*
G37*
G36*
X341Y3884D02*
X244D01*
Y3787D01*
X341D01*
Y3884D01*
D02*
G37*
G36*
X214D02*
X116D01*
Y3787D01*
X214D01*
Y3884D01*
D02*
G37*
G36*
X3423Y3832D02*
X3405D01*
X3389Y3825D01*
X3376Y3812D01*
X3369Y3795D01*
Y3778D01*
X3376Y3761D01*
X3389Y3748D01*
X3405Y3742D01*
X3423D01*
X3440Y3748D01*
X3453Y3761D01*
X3459Y3778D01*
Y3795D01*
X3453Y3812D01*
X3440Y3825D01*
X3423Y3832D01*
D02*
G37*
G36*
X1355Y3830D02*
X1337D01*
X1321Y3823D01*
X1308Y3810D01*
X1301Y3794D01*
Y3776D01*
X1308Y3759D01*
X1321Y3746D01*
X1337Y3740D01*
X1355D01*
X1372Y3746D01*
X1384Y3759D01*
X1391Y3776D01*
Y3794D01*
X1384Y3810D01*
X1372Y3823D01*
X1355Y3830D01*
D02*
G37*
G36*
X751Y3884D02*
X722D01*
X693Y3877D01*
X668Y3862D01*
X647Y3841D01*
X632Y3815D01*
X624Y3787D01*
Y3757D01*
X632Y3728D01*
X647Y3703D01*
X668Y3682D01*
X693Y3667D01*
X722Y3659D01*
X751D01*
X780Y3667D01*
X806Y3682D01*
X827Y3703D01*
X841Y3728D01*
X849Y3757D01*
Y3787D01*
X841Y3815D01*
X827Y3841D01*
X806Y3862D01*
X780Y3877D01*
X751Y3884D01*
D02*
G37*
G36*
X497D02*
X468D01*
X439Y3877D01*
X414Y3862D01*
X393Y3841D01*
X378Y3815D01*
X370Y3787D01*
Y3757D01*
X378Y3728D01*
X393Y3703D01*
X414Y3682D01*
X439Y3667D01*
X468Y3659D01*
X497D01*
X526Y3667D01*
X552Y3682D01*
X573Y3703D01*
X587Y3728D01*
X595Y3757D01*
Y3787D01*
X587Y3815D01*
X573Y3841D01*
X552Y3862D01*
X526Y3877D01*
X497Y3884D01*
D02*
G37*
G36*
X341Y3757D02*
X244D01*
Y3659D01*
X341D01*
Y3757D01*
D02*
G37*
G36*
X214D02*
X116D01*
Y3659D01*
X214D01*
Y3757D01*
D02*
G37*
G36*
X1254Y3703D02*
X1236D01*
X1219Y3696D01*
X1206Y3683D01*
X1200Y3667D01*
Y3649D01*
X1206Y3632D01*
X1219Y3619D01*
X1236Y3613D01*
X1254D01*
X1270Y3619D01*
X1283Y3632D01*
X1290Y3649D01*
Y3667D01*
X1283Y3683D01*
X1270Y3696D01*
X1254Y3703D01*
D02*
G37*
G36*
X1025Y3690D02*
X1007D01*
X991Y3683D01*
X978Y3670D01*
X971Y3654D01*
Y3636D01*
X978Y3619D01*
X991Y3607D01*
X1007Y3600D01*
X1025D01*
X1041Y3607D01*
X1054Y3619D01*
X1061Y3636D01*
Y3654D01*
X1054Y3670D01*
X1041Y3683D01*
X1025Y3690D01*
D02*
G37*
G36*
X4846Y3623D02*
X4749D01*
Y3526D01*
X4846D01*
Y3623D01*
D02*
G37*
G36*
X4719D02*
X4621D01*
Y3526D01*
X4719D01*
Y3623D01*
D02*
G37*
G36*
X341Y3592D02*
X244D01*
Y3495D01*
X341D01*
Y3592D01*
D02*
G37*
G36*
X214D02*
X116D01*
Y3495D01*
X214D01*
Y3592D01*
D02*
G37*
G36*
X1355Y3576D02*
X1337D01*
X1321Y3569D01*
X1308Y3556D01*
X1301Y3540D01*
Y3522D01*
X1308Y3505D01*
X1321Y3492D01*
X1337Y3486D01*
X1355D01*
X1372Y3492D01*
X1384Y3505D01*
X1391Y3522D01*
Y3540D01*
X1384Y3556D01*
X1372Y3569D01*
X1355Y3576D01*
D02*
G37*
G36*
X4846Y3496D02*
X4749D01*
Y3398D01*
X4846D01*
Y3496D01*
D02*
G37*
G36*
X4719D02*
X4621D01*
Y3398D01*
X4719D01*
Y3496D01*
D02*
G37*
G36*
X4495Y3623D02*
X4465D01*
X4436Y3615D01*
X4411Y3601D01*
X4390Y3580D01*
X4375Y3554D01*
X4367Y3525D01*
Y3496D01*
X4375Y3467D01*
X4390Y3441D01*
X4411Y3421D01*
X4436Y3406D01*
X4465Y3398D01*
X4495D01*
X4523Y3406D01*
X4549Y3421D01*
X4570Y3441D01*
X4585Y3467D01*
X4592Y3496D01*
Y3525D01*
X4585Y3554D01*
X4570Y3580D01*
X4549Y3601D01*
X4523Y3615D01*
X4495Y3623D01*
D02*
G37*
G36*
X4241D02*
X4211D01*
X4182Y3615D01*
X4157Y3601D01*
X4136Y3580D01*
X4121Y3554D01*
X4113Y3525D01*
Y3496D01*
X4121Y3467D01*
X4136Y3441D01*
X4157Y3421D01*
X4182Y3406D01*
X4211Y3398D01*
X4241D01*
X4269Y3406D01*
X4295Y3421D01*
X4316Y3441D01*
X4331Y3467D01*
X4338Y3496D01*
Y3525D01*
X4331Y3554D01*
X4316Y3580D01*
X4295Y3601D01*
X4269Y3615D01*
X4241Y3623D01*
D02*
G37*
G36*
X751Y3592D02*
X722D01*
X693Y3585D01*
X668Y3570D01*
X647Y3549D01*
X632Y3523D01*
X624Y3495D01*
Y3465D01*
X632Y3436D01*
X647Y3411D01*
X668Y3390D01*
X693Y3375D01*
X722Y3367D01*
X751D01*
X780Y3375D01*
X806Y3390D01*
X827Y3411D01*
X841Y3436D01*
X849Y3465D01*
Y3495D01*
X841Y3523D01*
X827Y3549D01*
X806Y3570D01*
X780Y3585D01*
X751Y3592D01*
D02*
G37*
G36*
X497D02*
X468D01*
X439Y3585D01*
X414Y3570D01*
X393Y3549D01*
X378Y3523D01*
X370Y3495D01*
Y3465D01*
X378Y3436D01*
X393Y3411D01*
X414Y3390D01*
X439Y3375D01*
X468Y3367D01*
X497D01*
X526Y3375D01*
X552Y3390D01*
X573Y3411D01*
X587Y3436D01*
X595Y3465D01*
Y3495D01*
X587Y3523D01*
X573Y3549D01*
X552Y3570D01*
X526Y3585D01*
X497Y3592D01*
D02*
G37*
G36*
X341Y3465D02*
X244D01*
Y3367D01*
X341D01*
Y3465D01*
D02*
G37*
G36*
X214D02*
X116D01*
Y3367D01*
X214D01*
Y3465D01*
D02*
G37*
G36*
X1355Y3449D02*
X1337D01*
X1321Y3442D01*
X1308Y3429D01*
X1301Y3413D01*
Y3395D01*
X1308Y3378D01*
X1321Y3365D01*
X1337Y3359D01*
X1355D01*
X1372Y3365D01*
X1384Y3378D01*
X1391Y3395D01*
Y3413D01*
X1384Y3429D01*
X1372Y3442D01*
X1355Y3449D01*
D02*
G37*
G36*
X4846Y3331D02*
X4749D01*
Y3233D01*
X4846D01*
Y3331D01*
D02*
G37*
G36*
X4719D02*
X4621D01*
Y3233D01*
X4719D01*
Y3331D01*
D02*
G37*
G36*
X1330Y3322D02*
X1312D01*
X1295Y3315D01*
X1283Y3302D01*
X1276Y3286D01*
Y3268D01*
X1283Y3251D01*
X1295Y3238D01*
X1312Y3232D01*
X1330D01*
X1346Y3238D01*
X1359Y3251D01*
X1366Y3268D01*
Y3286D01*
X1359Y3302D01*
X1346Y3315D01*
X1330Y3322D01*
D02*
G37*
G36*
X341Y3300D02*
X244D01*
Y3203D01*
X341D01*
Y3300D01*
D02*
G37*
G36*
X214D02*
X116D01*
Y3203D01*
X214D01*
Y3300D01*
D02*
G37*
G36*
X4846Y3203D02*
X4749D01*
Y3106D01*
X4846D01*
Y3203D01*
D02*
G37*
G36*
X4719D02*
X4621D01*
Y3106D01*
X4719D01*
Y3203D01*
D02*
G37*
G36*
X4495Y3331D02*
X4465D01*
X4436Y3323D01*
X4411Y3308D01*
X4390Y3288D01*
X4375Y3262D01*
X4367Y3233D01*
Y3204D01*
X4375Y3175D01*
X4390Y3149D01*
X4411Y3128D01*
X4436Y3114D01*
X4465Y3106D01*
X4495D01*
X4523Y3114D01*
X4549Y3128D01*
X4570Y3149D01*
X4585Y3175D01*
X4592Y3204D01*
Y3233D01*
X4585Y3262D01*
X4570Y3288D01*
X4549Y3308D01*
X4523Y3323D01*
X4495Y3331D01*
D02*
G37*
G36*
X4241D02*
X4211D01*
X4182Y3323D01*
X4157Y3308D01*
X4136Y3288D01*
X4121Y3262D01*
X4113Y3233D01*
Y3204D01*
X4121Y3175D01*
X4136Y3149D01*
X4157Y3128D01*
X4182Y3114D01*
X4211Y3106D01*
X4241D01*
X4269Y3114D01*
X4295Y3128D01*
X4316Y3149D01*
X4331Y3175D01*
X4338Y3204D01*
Y3233D01*
X4331Y3262D01*
X4316Y3288D01*
X4295Y3308D01*
X4269Y3323D01*
X4241Y3331D01*
D02*
G37*
G36*
X1330Y3195D02*
X1312D01*
X1295Y3188D01*
X1283Y3175D01*
X1276Y3159D01*
Y3141D01*
X1283Y3124D01*
X1295Y3111D01*
X1312Y3105D01*
X1330D01*
X1346Y3111D01*
X1359Y3124D01*
X1366Y3141D01*
Y3159D01*
X1359Y3175D01*
X1346Y3188D01*
X1330Y3195D01*
D02*
G37*
G36*
X751Y3300D02*
X722D01*
X693Y3293D01*
X668Y3278D01*
X647Y3257D01*
X632Y3231D01*
X624Y3203D01*
Y3173D01*
X632Y3144D01*
X647Y3119D01*
X668Y3098D01*
X693Y3083D01*
X722Y3075D01*
X751D01*
X780Y3083D01*
X806Y3098D01*
X827Y3119D01*
X841Y3144D01*
X849Y3173D01*
Y3203D01*
X841Y3231D01*
X827Y3257D01*
X806Y3278D01*
X780Y3293D01*
X751Y3300D01*
D02*
G37*
G36*
X497D02*
X468D01*
X439Y3293D01*
X414Y3278D01*
X393Y3257D01*
X378Y3231D01*
X370Y3203D01*
Y3173D01*
X378Y3144D01*
X393Y3119D01*
X414Y3098D01*
X439Y3083D01*
X468Y3075D01*
X497D01*
X526Y3083D01*
X552Y3098D01*
X573Y3119D01*
X587Y3144D01*
X595Y3173D01*
Y3203D01*
X587Y3231D01*
X573Y3257D01*
X552Y3278D01*
X526Y3293D01*
X497Y3300D01*
D02*
G37*
G36*
X341Y3173D02*
X244D01*
Y3075D01*
X341D01*
Y3173D01*
D02*
G37*
G36*
X214D02*
X116D01*
Y3075D01*
X214D01*
Y3173D01*
D02*
G37*
G36*
X4846Y3039D02*
X4749D01*
Y2941D01*
X4846D01*
Y3039D01*
D02*
G37*
G36*
X4719D02*
X4621D01*
Y2941D01*
X4719D01*
Y3039D01*
D02*
G37*
G36*
X341Y3008D02*
X244D01*
Y2911D01*
X341D01*
Y3008D01*
D02*
G37*
G36*
X214D02*
X116D01*
Y2911D01*
X214D01*
Y3008D01*
D02*
G37*
G36*
X4846Y2911D02*
X4749D01*
Y2814D01*
X4846D01*
Y2911D01*
D02*
G37*
G36*
X4719D02*
X4621D01*
Y2814D01*
X4719D01*
Y2911D01*
D02*
G37*
G36*
X4495Y3039D02*
X4465D01*
X4436Y3031D01*
X4411Y3016D01*
X4390Y2995D01*
X4375Y2970D01*
X4367Y2941D01*
Y2912D01*
X4375Y2883D01*
X4390Y2857D01*
X4411Y2836D01*
X4436Y2821D01*
X4465Y2814D01*
X4495D01*
X4523Y2821D01*
X4549Y2836D01*
X4570Y2857D01*
X4585Y2883D01*
X4592Y2912D01*
Y2941D01*
X4585Y2970D01*
X4570Y2995D01*
X4549Y3016D01*
X4523Y3031D01*
X4495Y3039D01*
D02*
G37*
G36*
X4241D02*
X4211D01*
X4182Y3031D01*
X4157Y3016D01*
X4136Y2995D01*
X4121Y2970D01*
X4113Y2941D01*
Y2912D01*
X4121Y2883D01*
X4136Y2857D01*
X4157Y2836D01*
X4182Y2821D01*
X4211Y2814D01*
X4241D01*
X4269Y2821D01*
X4295Y2836D01*
X4316Y2857D01*
X4331Y2883D01*
X4338Y2912D01*
Y2941D01*
X4331Y2970D01*
X4316Y2995D01*
X4295Y3016D01*
X4269Y3031D01*
X4241Y3039D01*
D02*
G37*
G36*
X751Y3008D02*
X722D01*
X693Y3000D01*
X668Y2986D01*
X647Y2965D01*
X632Y2939D01*
X624Y2910D01*
Y2881D01*
X632Y2852D01*
X647Y2827D01*
X668Y2806D01*
X693Y2791D01*
X722Y2783D01*
X751D01*
X780Y2791D01*
X806Y2806D01*
X827Y2827D01*
X841Y2852D01*
X849Y2881D01*
Y2910D01*
X841Y2939D01*
X827Y2965D01*
X806Y2986D01*
X780Y3000D01*
X751Y3008D01*
D02*
G37*
G36*
X497D02*
X468D01*
X439Y3000D01*
X414Y2986D01*
X393Y2965D01*
X378Y2939D01*
X370Y2910D01*
Y2881D01*
X378Y2852D01*
X393Y2827D01*
X414Y2806D01*
X439Y2791D01*
X468Y2783D01*
X497D01*
X526Y2791D01*
X552Y2806D01*
X573Y2827D01*
X587Y2852D01*
X595Y2881D01*
Y2910D01*
X587Y2939D01*
X573Y2965D01*
X552Y2986D01*
X526Y3000D01*
X497Y3008D01*
D02*
G37*
G36*
X341Y2881D02*
X244D01*
Y2783D01*
X341D01*
Y2881D01*
D02*
G37*
G36*
X214D02*
X116D01*
Y2783D01*
X214D01*
Y2881D01*
D02*
G37*
G36*
X2041Y2788D02*
X2023D01*
X2007Y2781D01*
X1994Y2769D01*
X1988Y2753D01*
X1981Y2753D01*
X1975Y2753D01*
X1969Y2769D01*
X1956Y2781D01*
X1939Y2788D01*
X1921D01*
X1905Y2781D01*
X1892Y2769D01*
X1885Y2752D01*
Y2734D01*
X1892Y2718D01*
X1905Y2705D01*
X1921Y2698D01*
X1939D01*
X1956Y2705D01*
X1969Y2718D01*
X1975Y2733D01*
X1981Y2734D01*
X1988Y2733D01*
X1994Y2718D01*
X2007Y2705D01*
X2023Y2698D01*
X2041D01*
X2057Y2705D01*
X2070Y2718D01*
X2077Y2734D01*
Y2752D01*
X2070Y2769D01*
X2057Y2781D01*
X2041Y2788D01*
D02*
G37*
G36*
X1711D02*
X1693D01*
X1676Y2781D01*
X1664Y2769D01*
X1657Y2753D01*
X1651Y2753D01*
X1645Y2753D01*
X1638Y2769D01*
X1626Y2781D01*
X1609Y2788D01*
X1591D01*
X1575Y2781D01*
X1562Y2769D01*
X1556Y2753D01*
X1549Y2753D01*
X1543Y2753D01*
X1537Y2769D01*
X1524Y2781D01*
X1508Y2788D01*
X1490D01*
X1473Y2781D01*
X1460Y2769D01*
X1454Y2752D01*
Y2734D01*
X1460Y2718D01*
X1472Y2706D01*
X1473Y2699D01*
X1472Y2692D01*
X1460Y2680D01*
X1454Y2663D01*
Y2645D01*
X1460Y2629D01*
X1472Y2617D01*
X1473Y2610D01*
X1472Y2603D01*
X1460Y2591D01*
X1454Y2574D01*
Y2556D01*
X1460Y2540D01*
X1472Y2528D01*
X1473Y2521D01*
X1472Y2514D01*
X1460Y2502D01*
X1454Y2485D01*
Y2468D01*
X1460Y2451D01*
X1473Y2438D01*
X1490Y2432D01*
X1508D01*
X1524Y2438D01*
X1537Y2451D01*
X1543Y2466D01*
X1549Y2467D01*
X1556Y2466D01*
X1562Y2451D01*
X1575Y2438D01*
X1591Y2432D01*
X1609D01*
X1626Y2438D01*
X1638Y2451D01*
X1645Y2468D01*
Y2485D01*
X1638Y2502D01*
X1626Y2514D01*
X1626Y2521D01*
X1626Y2528D01*
X1638Y2540D01*
X1645Y2555D01*
X1651Y2556D01*
X1657Y2555D01*
X1664Y2540D01*
X1676Y2527D01*
X1693Y2520D01*
X1711D01*
X1727Y2527D01*
X1740Y2540D01*
X1747Y2556D01*
Y2574D01*
X1740Y2591D01*
X1728Y2603D01*
X1728Y2610D01*
X1728Y2617D01*
X1740Y2629D01*
X1747Y2645D01*
Y2663D01*
X1740Y2680D01*
X1728Y2692D01*
X1728Y2699D01*
X1728Y2706D01*
X1740Y2718D01*
X1747Y2734D01*
Y2752D01*
X1740Y2769D01*
X1727Y2781D01*
X1711Y2788D01*
D02*
G37*
G36*
X1825D02*
X1807D01*
X1791Y2781D01*
X1778Y2769D01*
X1771Y2752D01*
Y2734D01*
X1778Y2718D01*
X1791Y2705D01*
X1807Y2698D01*
X1825D01*
X1842Y2705D01*
X1854Y2718D01*
X1861Y2734D01*
Y2752D01*
X1854Y2769D01*
X1842Y2781D01*
X1825Y2788D01*
D02*
G37*
G36*
X1228Y2750D02*
X1210D01*
X1194Y2743D01*
X1181Y2731D01*
X1174Y2714D01*
Y2696D01*
X1181Y2680D01*
X1194Y2667D01*
X1210Y2660D01*
X1228D01*
X1245Y2667D01*
X1257Y2680D01*
X1264Y2696D01*
Y2714D01*
X1257Y2731D01*
X1245Y2743D01*
X1228Y2750D01*
D02*
G37*
G36*
X4846Y2747D02*
X4749D01*
Y2649D01*
X4846D01*
Y2747D01*
D02*
G37*
G36*
X4719D02*
X4621D01*
Y2649D01*
X4719D01*
Y2747D01*
D02*
G37*
G36*
X341Y2716D02*
X244D01*
Y2618D01*
X341D01*
Y2716D01*
D02*
G37*
G36*
X214D02*
X116D01*
Y2618D01*
X214D01*
Y2716D01*
D02*
G37*
G36*
X4846Y2619D02*
X4749D01*
Y2522D01*
X4846D01*
Y2619D01*
D02*
G37*
G36*
X4719D02*
X4621D01*
Y2522D01*
X4719D01*
Y2619D01*
D02*
G37*
G36*
X4495Y2747D02*
X4465D01*
X4436Y2739D01*
X4411Y2724D01*
X4390Y2703D01*
X4375Y2678D01*
X4367Y2649D01*
Y2619D01*
X4375Y2591D01*
X4390Y2565D01*
X4411Y2544D01*
X4436Y2529D01*
X4465Y2522D01*
X4495D01*
X4523Y2529D01*
X4549Y2544D01*
X4570Y2565D01*
X4585Y2591D01*
X4592Y2619D01*
Y2649D01*
X4585Y2678D01*
X4570Y2703D01*
X4549Y2724D01*
X4523Y2739D01*
X4495Y2747D01*
D02*
G37*
G36*
X4241D02*
X4211D01*
X4182Y2739D01*
X4157Y2724D01*
X4136Y2703D01*
X4121Y2678D01*
X4113Y2649D01*
Y2619D01*
X4121Y2591D01*
X4136Y2565D01*
X4157Y2544D01*
X4182Y2529D01*
X4211Y2522D01*
X4241D01*
X4269Y2529D01*
X4295Y2544D01*
X4316Y2565D01*
X4331Y2591D01*
X4338Y2619D01*
Y2649D01*
X4331Y2678D01*
X4316Y2703D01*
X4295Y2724D01*
X4269Y2739D01*
X4241Y2747D01*
D02*
G37*
G36*
X2181Y2788D02*
X2163D01*
X2146Y2781D01*
X2134Y2769D01*
X2127Y2752D01*
Y2734D01*
X2134Y2718D01*
X2145Y2706D01*
X2146Y2699D01*
X2145Y2692D01*
X2134Y2680D01*
X2127Y2663D01*
Y2645D01*
X2134Y2629D01*
X2146Y2616D01*
X2161Y2610D01*
X2162Y2603D01*
X2161Y2597D01*
X2146Y2591D01*
X2134Y2578D01*
X2127Y2562D01*
Y2544D01*
X2134Y2527D01*
X2146Y2515D01*
X2163Y2508D01*
X2181D01*
X2197Y2515D01*
X2210Y2527D01*
X2217Y2544D01*
Y2562D01*
X2210Y2578D01*
X2197Y2591D01*
X2182Y2597D01*
X2181Y2603D01*
X2182Y2610D01*
X2197Y2616D01*
X2210Y2629D01*
X2217Y2645D01*
Y2663D01*
X2210Y2680D01*
X2198Y2692D01*
X2198Y2699D01*
X2198Y2706D01*
X2210Y2718D01*
X2217Y2734D01*
Y2752D01*
X2210Y2769D01*
X2197Y2781D01*
X2181Y2788D01*
D02*
G37*
G36*
X751Y2716D02*
X722D01*
X693Y2708D01*
X668Y2694D01*
X647Y2673D01*
X632Y2647D01*
X624Y2618D01*
Y2589D01*
X632Y2560D01*
X647Y2534D01*
X668Y2513D01*
X693Y2499D01*
X722Y2491D01*
X751D01*
X780Y2499D01*
X806Y2513D01*
X827Y2534D01*
X841Y2560D01*
X849Y2589D01*
Y2618D01*
X841Y2647D01*
X827Y2673D01*
X806Y2694D01*
X780Y2708D01*
X751Y2716D01*
D02*
G37*
G36*
X497D02*
X468D01*
X439Y2708D01*
X414Y2694D01*
X393Y2673D01*
X378Y2647D01*
X370Y2618D01*
Y2589D01*
X378Y2560D01*
X393Y2534D01*
X414Y2513D01*
X439Y2499D01*
X468Y2491D01*
X497D01*
X526Y2499D01*
X552Y2513D01*
X573Y2534D01*
X587Y2560D01*
X595Y2589D01*
Y2618D01*
X587Y2647D01*
X573Y2673D01*
X552Y2694D01*
X526Y2708D01*
X497Y2716D01*
D02*
G37*
G36*
X341Y2589D02*
X244D01*
Y2491D01*
X341D01*
Y2589D01*
D02*
G37*
G36*
X214D02*
X116D01*
Y2491D01*
X214D01*
Y2589D01*
D02*
G37*
G36*
X2752Y2534D02*
X2734D01*
X2718Y2527D01*
X2705Y2515D01*
X2698Y2498D01*
Y2480D01*
X2705Y2464D01*
X2718Y2451D01*
X2734Y2444D01*
X2752D01*
X2769Y2451D01*
X2781Y2464D01*
X2788Y2480D01*
Y2498D01*
X2781Y2515D01*
X2769Y2527D01*
X2752Y2534D01*
D02*
G37*
G36*
X4846Y2455D02*
X4749D01*
Y2357D01*
X4846D01*
Y2455D01*
D02*
G37*
G36*
X4719D02*
X4621D01*
Y2357D01*
X4719D01*
Y2455D01*
D02*
G37*
G36*
X1444Y2255D02*
X1426D01*
X1410Y2248D01*
X1398Y2236D01*
X1391Y2236D01*
X1384Y2236D01*
X1372Y2248D01*
X1355Y2255D01*
X1337D01*
X1321Y2248D01*
X1308Y2235D01*
X1301Y2219D01*
Y2201D01*
X1308Y2184D01*
X1320Y2172D01*
X1320Y2165D01*
X1320Y2158D01*
X1308Y2146D01*
X1301Y2130D01*
Y2112D01*
X1308Y2095D01*
X1321Y2083D01*
X1337Y2076D01*
X1355D01*
X1372Y2083D01*
X1384Y2095D01*
X1391Y2095D01*
X1398Y2095D01*
X1410Y2083D01*
X1426Y2076D01*
X1444D01*
X1461Y2083D01*
X1473Y2095D01*
X1480Y2112D01*
Y2130D01*
X1473Y2146D01*
X1461Y2158D01*
X1461Y2165D01*
X1461Y2172D01*
X1473Y2184D01*
X1480Y2201D01*
Y2219D01*
X1473Y2235D01*
X1461Y2248D01*
X1444Y2255D01*
D02*
G37*
G36*
X4846Y2327D02*
X4749D01*
Y2230D01*
X4846D01*
Y2327D01*
D02*
G37*
G36*
X4719D02*
X4621D01*
Y2230D01*
X4719D01*
Y2327D01*
D02*
G37*
G36*
X4495Y2455D02*
X4465D01*
X4436Y2447D01*
X4411Y2432D01*
X4390Y2411D01*
X4375Y2386D01*
X4367Y2357D01*
Y2327D01*
X4375Y2299D01*
X4390Y2273D01*
X4411Y2252D01*
X4436Y2237D01*
X4465Y2230D01*
X4495D01*
X4523Y2237D01*
X4549Y2252D01*
X4570Y2273D01*
X4585Y2299D01*
X4592Y2327D01*
Y2357D01*
X4585Y2386D01*
X4570Y2411D01*
X4549Y2432D01*
X4523Y2447D01*
X4495Y2455D01*
D02*
G37*
G36*
X4241D02*
X4211D01*
X4182Y2447D01*
X4157Y2432D01*
X4136Y2411D01*
X4121Y2386D01*
X4113Y2357D01*
Y2327D01*
X4121Y2299D01*
X4136Y2273D01*
X4157Y2252D01*
X4182Y2237D01*
X4211Y2230D01*
X4241D01*
X4269Y2237D01*
X4295Y2252D01*
X4316Y2273D01*
X4331Y2299D01*
X4338Y2327D01*
Y2357D01*
X4331Y2386D01*
X4316Y2411D01*
X4295Y2432D01*
X4269Y2447D01*
X4241Y2455D01*
D02*
G37*
G36*
X2727Y2318D02*
X2709D01*
X2692Y2311D01*
X2680Y2299D01*
X2673Y2282D01*
Y2264D01*
X2680Y2248D01*
X2692Y2235D01*
X2709Y2228D01*
X2727D01*
X2743Y2235D01*
X2756Y2248D01*
X2763Y2264D01*
Y2282D01*
X2756Y2299D01*
X2743Y2311D01*
X2727Y2318D01*
D02*
G37*
G36*
Y2179D02*
X2709D01*
X2692Y2172D01*
X2680Y2159D01*
X2673Y2143D01*
Y2125D01*
X2680Y2108D01*
X2692Y2095D01*
X2709Y2089D01*
X2727D01*
X2743Y2095D01*
X2756Y2108D01*
X2763Y2125D01*
Y2143D01*
X2756Y2159D01*
X2743Y2172D01*
X2727Y2179D01*
D02*
G37*
G36*
X4846Y2163D02*
X4749D01*
Y2065D01*
X4846D01*
Y2163D01*
D02*
G37*
G36*
X4719D02*
X4621D01*
Y2065D01*
X4719D01*
Y2163D01*
D02*
G37*
G36*
X4846Y2035D02*
X4749D01*
Y1938D01*
X4846D01*
Y2035D01*
D02*
G37*
G36*
X4719D02*
X4621D01*
Y1938D01*
X4719D01*
Y2035D01*
D02*
G37*
G36*
X4495Y2163D02*
X4465D01*
X4436Y2155D01*
X4411Y2140D01*
X4390Y2119D01*
X4375Y2093D01*
X4367Y2065D01*
Y2035D01*
X4375Y2007D01*
X4390Y1981D01*
X4411Y1960D01*
X4436Y1945D01*
X4465Y1938D01*
X4495D01*
X4523Y1945D01*
X4549Y1960D01*
X4570Y1981D01*
X4585Y2007D01*
X4592Y2035D01*
Y2065D01*
X4585Y2093D01*
X4570Y2119D01*
X4549Y2140D01*
X4523Y2155D01*
X4495Y2163D01*
D02*
G37*
G36*
X4241D02*
X4211D01*
X4182Y2155D01*
X4157Y2140D01*
X4136Y2119D01*
X4121Y2093D01*
X4113Y2065D01*
Y2035D01*
X4121Y2007D01*
X4136Y1981D01*
X4157Y1960D01*
X4182Y1945D01*
X4211Y1938D01*
X4241D01*
X4269Y1945D01*
X4295Y1960D01*
X4316Y1981D01*
X4331Y2007D01*
X4338Y2035D01*
Y2065D01*
X4331Y2093D01*
X4316Y2119D01*
X4295Y2140D01*
X4269Y2155D01*
X4241Y2163D01*
D02*
G37*
G36*
X328Y1907D02*
X231D01*
Y1810D01*
X328D01*
Y1907D01*
D02*
G37*
G36*
X201D02*
X103D01*
Y1810D01*
X201D01*
Y1907D01*
D02*
G37*
G36*
X4846Y1870D02*
X4749D01*
Y1773D01*
X4846D01*
Y1870D01*
D02*
G37*
G36*
X4719D02*
X4621D01*
Y1773D01*
X4719D01*
Y1870D01*
D02*
G37*
G36*
X739Y1907D02*
X709D01*
X680Y1899D01*
X655Y1885D01*
X634Y1864D01*
X619Y1838D01*
X611Y1809D01*
Y1780D01*
X619Y1751D01*
X634Y1726D01*
X655Y1705D01*
X680Y1690D01*
X709Y1682D01*
X739D01*
X767Y1690D01*
X793Y1705D01*
X814Y1726D01*
X829Y1751D01*
X836Y1780D01*
Y1809D01*
X829Y1838D01*
X814Y1864D01*
X793Y1885D01*
X767Y1899D01*
X739Y1907D01*
D02*
G37*
G36*
X485D02*
X455D01*
X426Y1899D01*
X401Y1885D01*
X380Y1864D01*
X365Y1838D01*
X357Y1809D01*
Y1780D01*
X365Y1751D01*
X380Y1726D01*
X401Y1705D01*
X426Y1690D01*
X455Y1682D01*
X485D01*
X513Y1690D01*
X539Y1705D01*
X560Y1726D01*
X575Y1751D01*
X582Y1780D01*
Y1809D01*
X575Y1838D01*
X560Y1864D01*
X539Y1885D01*
X513Y1899D01*
X485Y1907D01*
D02*
G37*
G36*
X328Y1780D02*
X231D01*
Y1682D01*
X328D01*
Y1780D01*
D02*
G37*
G36*
X201D02*
X103D01*
Y1682D01*
X201D01*
Y1780D01*
D02*
G37*
G36*
X4846Y1743D02*
X4749D01*
Y1645D01*
X4846D01*
Y1743D01*
D02*
G37*
G36*
X4719D02*
X4621D01*
Y1645D01*
X4719D01*
Y1743D01*
D02*
G37*
G36*
X4495Y1870D02*
X4465D01*
X4436Y1863D01*
X4411Y1848D01*
X4390Y1827D01*
X4375Y1801D01*
X4367Y1773D01*
Y1743D01*
X4375Y1715D01*
X4390Y1689D01*
X4411Y1668D01*
X4436Y1653D01*
X4465Y1645D01*
X4495D01*
X4523Y1653D01*
X4549Y1668D01*
X4570Y1689D01*
X4585Y1715D01*
X4592Y1743D01*
Y1773D01*
X4585Y1801D01*
X4570Y1827D01*
X4549Y1848D01*
X4523Y1863D01*
X4495Y1870D01*
D02*
G37*
G36*
X4241D02*
X4211D01*
X4182Y1863D01*
X4157Y1848D01*
X4136Y1827D01*
X4121Y1801D01*
X4113Y1773D01*
Y1743D01*
X4121Y1715D01*
X4136Y1689D01*
X4157Y1668D01*
X4182Y1653D01*
X4211Y1645D01*
X4241D01*
X4269Y1653D01*
X4295Y1668D01*
X4316Y1689D01*
X4331Y1715D01*
X4338Y1743D01*
Y1773D01*
X4331Y1801D01*
X4316Y1827D01*
X4295Y1848D01*
X4269Y1863D01*
X4241Y1870D01*
D02*
G37*
G36*
X328Y1615D02*
X231D01*
Y1518D01*
X328D01*
Y1615D01*
D02*
G37*
G36*
X201D02*
X103D01*
Y1518D01*
X201D01*
Y1615D01*
D02*
G37*
G36*
X2839Y1521D02*
X2822D01*
X2805Y1514D01*
X2792Y1501D01*
X2787Y1489D01*
X2774D01*
X2769Y1501D01*
X2756Y1514D01*
X2739Y1521D01*
X2722D01*
X2705Y1514D01*
X2692Y1501D01*
X2687Y1489D01*
X2674D01*
X2669Y1501D01*
X2656Y1514D01*
X2639Y1521D01*
X2622D01*
X2605Y1514D01*
X2592Y1501D01*
X2585Y1485D01*
Y1467D01*
X2592Y1450D01*
X2599Y1444D01*
X2604Y1436D01*
X2599Y1427D01*
X2592Y1421D01*
X2585Y1405D01*
Y1387D01*
X2592Y1370D01*
X2599Y1364D01*
X2604Y1356D01*
X2599Y1347D01*
X2592Y1341D01*
X2585Y1325D01*
Y1307D01*
X2592Y1290D01*
X2605Y1278D01*
X2622Y1271D01*
X2639D01*
X2656Y1278D01*
X2669Y1290D01*
X2674Y1303D01*
X2687D01*
X2692Y1290D01*
X2705Y1278D01*
X2722Y1271D01*
X2739D01*
X2756Y1278D01*
X2769Y1290D01*
X2774Y1303D01*
X2787D01*
X2792Y1290D01*
X2805Y1278D01*
X2822Y1271D01*
X2839D01*
X2856Y1278D01*
X2869Y1290D01*
X2875Y1307D01*
Y1325D01*
X2869Y1341D01*
X2862Y1347D01*
X2857Y1356D01*
X2862Y1364D01*
X2869Y1370D01*
X2875Y1387D01*
Y1405D01*
X2869Y1421D01*
X2862Y1427D01*
X2857Y1436D01*
X2862Y1444D01*
X2869Y1450D01*
X2875Y1467D01*
Y1485D01*
X2869Y1501D01*
X2856Y1514D01*
X2839Y1521D01*
D02*
G37*
G36*
X4846Y1578D02*
X4749D01*
Y1481D01*
X4846D01*
Y1578D01*
D02*
G37*
G36*
X4719D02*
X4621D01*
Y1481D01*
X4719D01*
Y1578D01*
D02*
G37*
G36*
X3314Y1538D02*
X3296D01*
X3279Y1531D01*
X3267Y1518D01*
X3260Y1502D01*
Y1484D01*
X3267Y1467D01*
X3279Y1455D01*
X3296Y1448D01*
X3314D01*
X3330Y1455D01*
X3343Y1467D01*
X3350Y1484D01*
Y1502D01*
X3343Y1518D01*
X3330Y1531D01*
X3314Y1538D01*
D02*
G37*
G36*
X739Y1615D02*
X709D01*
X680Y1607D01*
X655Y1593D01*
X634Y1572D01*
X619Y1546D01*
X611Y1517D01*
Y1488D01*
X619Y1459D01*
X634Y1433D01*
X655Y1412D01*
X680Y1398D01*
X709Y1390D01*
X739D01*
X767Y1398D01*
X793Y1412D01*
X814Y1433D01*
X829Y1459D01*
X836Y1488D01*
Y1517D01*
X829Y1546D01*
X814Y1572D01*
X793Y1593D01*
X767Y1607D01*
X739Y1615D01*
D02*
G37*
G36*
X485D02*
X455D01*
X426Y1607D01*
X401Y1593D01*
X380Y1572D01*
X365Y1546D01*
X357Y1517D01*
Y1488D01*
X365Y1459D01*
X380Y1433D01*
X401Y1412D01*
X426Y1398D01*
X455Y1390D01*
X485D01*
X513Y1398D01*
X539Y1412D01*
X560Y1433D01*
X575Y1459D01*
X582Y1488D01*
Y1517D01*
X575Y1546D01*
X560Y1572D01*
X539Y1593D01*
X513Y1607D01*
X485Y1615D01*
D02*
G37*
G36*
X328Y1488D02*
X231D01*
Y1390D01*
X328D01*
Y1488D01*
D02*
G37*
G36*
X201D02*
X103D01*
Y1390D01*
X201D01*
Y1488D01*
D02*
G37*
G36*
X4846Y1451D02*
X4749D01*
Y1353D01*
X4846D01*
Y1451D01*
D02*
G37*
G36*
X4719D02*
X4621D01*
Y1353D01*
X4719D01*
Y1451D01*
D02*
G37*
G36*
X4495Y1578D02*
X4465D01*
X4436Y1571D01*
X4411Y1556D01*
X4390Y1535D01*
X4375Y1509D01*
X4367Y1481D01*
Y1451D01*
X4375Y1422D01*
X4390Y1397D01*
X4411Y1376D01*
X4436Y1361D01*
X4465Y1353D01*
X4495D01*
X4523Y1361D01*
X4549Y1376D01*
X4570Y1397D01*
X4585Y1422D01*
X4592Y1451D01*
Y1481D01*
X4585Y1509D01*
X4570Y1535D01*
X4549Y1556D01*
X4523Y1571D01*
X4495Y1578D01*
D02*
G37*
G36*
X4241D02*
X4211D01*
X4182Y1571D01*
X4157Y1556D01*
X4136Y1535D01*
X4121Y1509D01*
X4113Y1481D01*
Y1451D01*
X4121Y1422D01*
X4136Y1397D01*
X4157Y1376D01*
X4182Y1361D01*
X4211Y1353D01*
X4241D01*
X4269Y1361D01*
X4295Y1376D01*
X4316Y1397D01*
X4331Y1422D01*
X4338Y1451D01*
Y1481D01*
X4331Y1509D01*
X4316Y1535D01*
X4295Y1556D01*
X4269Y1571D01*
X4241Y1578D01*
D02*
G37*
G36*
X328Y1323D02*
X231D01*
Y1225D01*
X328D01*
Y1323D01*
D02*
G37*
G36*
X201D02*
X103D01*
Y1225D01*
X201D01*
Y1323D01*
D02*
G37*
G36*
X1876Y1315D02*
X1858D01*
X1841Y1308D01*
X1829Y1295D01*
X1822Y1279D01*
Y1261D01*
X1829Y1245D01*
X1841Y1232D01*
X1858Y1225D01*
X1876D01*
X1892Y1232D01*
X1905Y1245D01*
X1912Y1261D01*
Y1279D01*
X1905Y1295D01*
X1892Y1308D01*
X1876Y1315D01*
D02*
G37*
G36*
X4846Y1286D02*
X4749D01*
Y1189D01*
X4846D01*
Y1286D01*
D02*
G37*
G36*
X4719D02*
X4621D01*
Y1189D01*
X4719D01*
Y1286D01*
D02*
G37*
G36*
X1448Y1223D02*
X1430D01*
X1413Y1216D01*
X1401Y1203D01*
X1394Y1187D01*
Y1169D01*
X1401Y1152D01*
X1413Y1140D01*
X1430Y1133D01*
X1448D01*
X1464Y1140D01*
X1477Y1152D01*
X1484Y1169D01*
Y1187D01*
X1477Y1203D01*
X1464Y1216D01*
X1448Y1223D01*
D02*
G37*
G36*
X739Y1323D02*
X709D01*
X680Y1315D01*
X655Y1300D01*
X634Y1279D01*
X619Y1254D01*
X611Y1225D01*
Y1196D01*
X619Y1167D01*
X634Y1141D01*
X655Y1120D01*
X680Y1106D01*
X709Y1098D01*
X739D01*
X767Y1106D01*
X793Y1120D01*
X814Y1141D01*
X829Y1167D01*
X836Y1196D01*
Y1225D01*
X829Y1254D01*
X814Y1279D01*
X793Y1300D01*
X767Y1315D01*
X739Y1323D01*
D02*
G37*
G36*
X485D02*
X455D01*
X426Y1315D01*
X401Y1300D01*
X380Y1279D01*
X365Y1254D01*
X357Y1225D01*
Y1196D01*
X365Y1167D01*
X380Y1141D01*
X401Y1120D01*
X426Y1106D01*
X455Y1098D01*
X485D01*
X513Y1106D01*
X539Y1120D01*
X560Y1141D01*
X575Y1167D01*
X582Y1196D01*
Y1225D01*
X575Y1254D01*
X560Y1279D01*
X539Y1300D01*
X513Y1315D01*
X485Y1323D01*
D02*
G37*
G36*
X328Y1195D02*
X231D01*
Y1098D01*
X328D01*
Y1195D01*
D02*
G37*
G36*
X201D02*
X103D01*
Y1098D01*
X201D01*
Y1195D01*
D02*
G37*
G36*
X4846Y1159D02*
X4749D01*
Y1061D01*
X4846D01*
Y1159D01*
D02*
G37*
G36*
X4719D02*
X4621D01*
Y1061D01*
X4719D01*
Y1159D01*
D02*
G37*
G36*
X4495Y1286D02*
X4465D01*
X4436Y1279D01*
X4411Y1264D01*
X4390Y1243D01*
X4375Y1217D01*
X4367Y1189D01*
Y1159D01*
X4375Y1130D01*
X4390Y1105D01*
X4411Y1084D01*
X4436Y1069D01*
X4465Y1061D01*
X4495D01*
X4523Y1069D01*
X4549Y1084D01*
X4570Y1105D01*
X4585Y1130D01*
X4592Y1159D01*
Y1189D01*
X4585Y1217D01*
X4570Y1243D01*
X4549Y1264D01*
X4523Y1279D01*
X4495Y1286D01*
D02*
G37*
G36*
X4241D02*
X4211D01*
X4182Y1279D01*
X4157Y1264D01*
X4136Y1243D01*
X4121Y1217D01*
X4113Y1189D01*
Y1159D01*
X4121Y1130D01*
X4136Y1105D01*
X4157Y1084D01*
X4182Y1069D01*
X4211Y1061D01*
X4241D01*
X4269Y1069D01*
X4295Y1084D01*
X4316Y1105D01*
X4331Y1130D01*
X4338Y1159D01*
Y1189D01*
X4331Y1217D01*
X4316Y1243D01*
X4295Y1264D01*
X4269Y1279D01*
X4241Y1286D01*
D02*
G37*
G36*
X328Y1031D02*
X231D01*
Y933D01*
X328D01*
Y1031D01*
D02*
G37*
G36*
X201D02*
X103D01*
Y933D01*
X201D01*
Y1031D01*
D02*
G37*
G36*
X4846Y994D02*
X4749D01*
Y897D01*
X4846D01*
Y994D01*
D02*
G37*
G36*
X4719D02*
X4621D01*
Y897D01*
X4719D01*
Y994D01*
D02*
G37*
G36*
X739Y1031D02*
X709D01*
X680Y1023D01*
X655Y1008D01*
X634Y987D01*
X619Y962D01*
X611Y933D01*
Y903D01*
X619Y875D01*
X634Y849D01*
X655Y828D01*
X680Y813D01*
X709Y806D01*
X739D01*
X767Y813D01*
X793Y828D01*
X814Y849D01*
X829Y875D01*
X836Y903D01*
Y933D01*
X829Y962D01*
X814Y987D01*
X793Y1008D01*
X767Y1023D01*
X739Y1031D01*
D02*
G37*
G36*
X485D02*
X455D01*
X426Y1023D01*
X401Y1008D01*
X380Y987D01*
X365Y962D01*
X357Y933D01*
Y903D01*
X365Y875D01*
X380Y849D01*
X401Y828D01*
X426Y813D01*
X455Y806D01*
X485D01*
X513Y813D01*
X539Y828D01*
X560Y849D01*
X575Y875D01*
X582Y903D01*
Y933D01*
X575Y962D01*
X560Y987D01*
X539Y1008D01*
X513Y1023D01*
X485Y1031D01*
D02*
G37*
G36*
X328Y903D02*
X231D01*
Y806D01*
X328D01*
Y903D01*
D02*
G37*
G36*
X201D02*
X103D01*
Y806D01*
X201D01*
Y903D01*
D02*
G37*
G36*
X4846Y867D02*
X4749D01*
Y769D01*
X4846D01*
Y867D01*
D02*
G37*
G36*
X4719D02*
X4621D01*
Y769D01*
X4719D01*
Y867D01*
D02*
G37*
G36*
X4495Y994D02*
X4465D01*
X4436Y986D01*
X4411Y972D01*
X4390Y951D01*
X4375Y925D01*
X4367Y896D01*
Y867D01*
X4375Y838D01*
X4390Y813D01*
X4411Y792D01*
X4436Y777D01*
X4465Y769D01*
X4495D01*
X4523Y777D01*
X4549Y792D01*
X4570Y813D01*
X4585Y838D01*
X4592Y867D01*
Y896D01*
X4585Y925D01*
X4570Y951D01*
X4549Y972D01*
X4523Y986D01*
X4495Y994D01*
D02*
G37*
G36*
X4241D02*
X4211D01*
X4182Y986D01*
X4157Y972D01*
X4136Y951D01*
X4121Y925D01*
X4113Y896D01*
Y867D01*
X4121Y838D01*
X4136Y813D01*
X4157Y792D01*
X4182Y777D01*
X4211Y769D01*
X4241D01*
X4269Y777D01*
X4295Y792D01*
X4316Y813D01*
X4331Y838D01*
X4338Y867D01*
Y896D01*
X4331Y925D01*
X4316Y951D01*
X4295Y972D01*
X4269Y986D01*
X4241Y994D01*
D02*
G37*
G36*
X2862Y611D02*
X2844D01*
X2828Y604D01*
X2815Y591D01*
X2808Y575D01*
Y557D01*
X2815Y540D01*
X2828Y527D01*
X2844Y521D01*
X2862D01*
X2879Y527D01*
X2891Y540D01*
X2898Y557D01*
Y575D01*
X2891Y591D01*
X2879Y604D01*
X2862Y611D01*
D02*
G37*
G36*
X2752D02*
X2734D01*
X2718Y604D01*
X2705Y591D01*
X2698Y575D01*
Y557D01*
X2705Y540D01*
X2718Y527D01*
X2734Y521D01*
X2752D01*
X2769Y527D01*
X2781Y540D01*
X2788Y557D01*
Y575D01*
X2781Y591D01*
X2769Y604D01*
X2752Y611D01*
D02*
G37*
G36*
X2642D02*
X2624D01*
X2608Y604D01*
X2595Y591D01*
X2588Y575D01*
Y557D01*
X2595Y540D01*
X2608Y527D01*
X2624Y521D01*
X2642D01*
X2659Y527D01*
X2671Y540D01*
X2678Y557D01*
Y575D01*
X2671Y591D01*
X2659Y604D01*
X2642Y611D01*
D02*
G37*
G36*
X4718Y480D02*
X4715D01*
Y315D01*
X4880D01*
Y318D01*
X4873Y353D01*
X4860Y385D01*
X4840Y415D01*
X4815Y440D01*
X4785Y460D01*
X4753Y473D01*
X4718Y480D01*
D02*
G37*
G36*
X4685D02*
X4682D01*
X4647Y473D01*
X4615Y460D01*
X4585Y440D01*
X4560Y415D01*
X4540Y385D01*
X4527Y353D01*
X4520Y318D01*
Y315D01*
X4685D01*
Y480D01*
D02*
G37*
G36*
X318D02*
X315D01*
Y315D01*
X480D01*
Y318D01*
X473Y353D01*
X460Y385D01*
X440Y415D01*
X415Y440D01*
X385Y460D01*
X353Y473D01*
X318Y480D01*
D02*
G37*
G36*
X285D02*
X282D01*
X247Y473D01*
X215Y460D01*
X185Y440D01*
X160Y415D01*
X140Y385D01*
X127Y353D01*
X120Y318D01*
Y315D01*
X285D01*
Y480D01*
D02*
G37*
G36*
X2862Y501D02*
X2844D01*
X2828Y494D01*
X2815Y481D01*
X2808Y465D01*
Y447D01*
X2815Y430D01*
X2828Y417D01*
X2840Y412D01*
Y399D01*
X2828Y394D01*
X2815Y381D01*
X2808Y365D01*
Y347D01*
X2815Y330D01*
X2828Y317D01*
X2840Y312D01*
Y299D01*
X2828Y294D01*
X2815Y281D01*
X2808Y265D01*
Y247D01*
X2815Y230D01*
X2828Y217D01*
X2844Y211D01*
X2862D01*
X2879Y217D01*
X2891Y230D01*
X2898Y247D01*
Y265D01*
X2891Y281D01*
X2879Y294D01*
X2866Y299D01*
Y312D01*
X2879Y317D01*
X2891Y330D01*
X2898Y347D01*
Y365D01*
X2891Y381D01*
X2879Y394D01*
X2866Y399D01*
Y412D01*
X2879Y417D01*
X2891Y430D01*
X2898Y447D01*
Y465D01*
X2891Y481D01*
X2879Y494D01*
X2862Y501D01*
D02*
G37*
G36*
X2752D02*
X2734D01*
X2718Y494D01*
X2705Y481D01*
X2698Y465D01*
Y447D01*
X2705Y430D01*
X2718Y417D01*
X2730Y412D01*
Y399D01*
X2718Y394D01*
X2705Y381D01*
X2698Y365D01*
Y347D01*
X2705Y330D01*
X2718Y317D01*
X2730Y312D01*
Y299D01*
X2718Y294D01*
X2705Y281D01*
X2698Y265D01*
Y247D01*
X2705Y230D01*
X2718Y217D01*
X2734Y211D01*
X2752D01*
X2769Y217D01*
X2781Y230D01*
X2788Y247D01*
Y265D01*
X2781Y281D01*
X2769Y294D01*
X2756Y299D01*
Y312D01*
X2769Y317D01*
X2781Y330D01*
X2788Y347D01*
Y365D01*
X2781Y381D01*
X2769Y394D01*
X2756Y399D01*
Y412D01*
X2769Y417D01*
X2781Y430D01*
X2788Y447D01*
Y465D01*
X2781Y481D01*
X2769Y494D01*
X2752Y501D01*
D02*
G37*
G36*
X2642D02*
X2624D01*
X2608Y494D01*
X2595Y481D01*
X2588Y465D01*
Y447D01*
X2595Y430D01*
X2608Y417D01*
X2620Y412D01*
Y399D01*
X2608Y394D01*
X2595Y381D01*
X2588Y365D01*
Y347D01*
X2595Y330D01*
X2608Y317D01*
X2620Y312D01*
Y299D01*
X2608Y294D01*
X2595Y281D01*
X2588Y265D01*
Y247D01*
X2595Y230D01*
X2608Y217D01*
X2624Y211D01*
X2642D01*
X2659Y217D01*
X2671Y230D01*
X2678Y247D01*
Y265D01*
X2671Y281D01*
X2659Y294D01*
X2646Y299D01*
Y312D01*
X2659Y317D01*
X2671Y330D01*
X2678Y347D01*
Y365D01*
X2671Y381D01*
X2659Y394D01*
X2646Y399D01*
Y412D01*
X2659Y417D01*
X2671Y430D01*
X2678Y447D01*
Y465D01*
X2671Y481D01*
X2659Y494D01*
X2642Y501D01*
D02*
G37*
G36*
X4880Y285D02*
X4715D01*
Y120D01*
X4718D01*
X4753Y127D01*
X4785Y140D01*
X4815Y160D01*
X4840Y185D01*
X4860Y215D01*
X4873Y247D01*
X4880Y282D01*
Y285D01*
D02*
G37*
G36*
X4685D02*
X4520D01*
Y282D01*
X4527Y247D01*
X4540Y215D01*
X4560Y185D01*
X4585Y160D01*
X4615Y140D01*
X4647Y127D01*
X4682Y120D01*
X4685D01*
Y285D01*
D02*
G37*
G36*
X480D02*
X315D01*
Y120D01*
X318D01*
X353Y127D01*
X385Y140D01*
X415Y160D01*
X440Y185D01*
X460Y215D01*
X473Y247D01*
X480Y282D01*
Y285D01*
D02*
G37*
G36*
X285D02*
X120D01*
Y282D01*
X127Y247D01*
X140Y215D01*
X160Y185D01*
X185Y160D01*
X215Y140D01*
X247Y127D01*
X282Y120D01*
X285D01*
Y285D01*
D02*
G37*
G36*
X2862Y191D02*
X2844D01*
X2828Y184D01*
X2815Y171D01*
X2808Y155D01*
Y137D01*
X2815Y120D01*
X2828Y107D01*
X2844Y101D01*
X2862D01*
X2879Y107D01*
X2891Y120D01*
X2898Y137D01*
Y155D01*
X2891Y171D01*
X2879Y184D01*
X2862Y191D01*
D02*
G37*
G36*
X2752D02*
X2734D01*
X2718Y184D01*
X2705Y171D01*
X2698Y155D01*
Y137D01*
X2705Y120D01*
X2718Y107D01*
X2734Y101D01*
X2752D01*
X2769Y107D01*
X2781Y120D01*
X2788Y137D01*
Y155D01*
X2781Y171D01*
X2769Y184D01*
X2752Y191D01*
D02*
G37*
G36*
X2642D02*
X2624D01*
X2608Y184D01*
X2595Y171D01*
X2588Y155D01*
Y137D01*
X2595Y120D01*
X2608Y107D01*
X2624Y101D01*
X2642D01*
X2659Y107D01*
X2671Y120D01*
X2678Y137D01*
Y155D01*
X2671Y171D01*
X2659Y184D01*
X2642Y191D01*
D02*
G37*
%LPD*%
D13*
X2999Y1285D02*
D03*
X4181Y268D02*
D03*
X3175Y2159D02*
D03*
X2997D02*
D03*
X3175Y2273D02*
D03*
X2997D02*
D03*
X4432Y3772D02*
D03*
X3124Y775D02*
D03*
X3239Y1143D02*
D03*
X3759Y140D02*
D03*
Y3797D02*
D03*
X3302Y2896D02*
D03*
X3556Y1346D02*
D03*
X3480Y1270D02*
D03*
X1842Y2375D02*
D03*
X1994D02*
D03*
X2984Y2883D02*
D03*
X2756Y1689D02*
D03*
X3442Y1562D02*
D03*
X3188Y2896D02*
D03*
X4737Y4293D02*
D03*
Y4026D02*
D03*
X967Y4117D02*
D03*
X243Y4206D02*
D03*
X446Y2275D02*
D03*
X269D02*
D03*
X2136Y751D02*
D03*
X711Y419D02*
D03*
Y190D02*
D03*
X1818Y637D02*
D03*
X1577Y446D02*
D03*
X4001Y152D02*
D03*
Y368D02*
D03*
X1372Y1702D02*
D03*
Y1537D02*
D03*
X1460Y1626D02*
D03*
Y1473D02*
D03*
X1346Y1016D02*
D03*
X2667Y1626D02*
D03*
X1702Y3061D02*
D03*
X940Y127D02*
D03*
X1448Y622D02*
D03*
X1588D02*
D03*
X2146Y1143D02*
D03*
X2259Y1269D02*
D03*
X1537Y1372D02*
D03*
Y1537D02*
D03*
Y1702D02*
D03*
X3404Y1410D02*
D03*
X102Y2108D02*
D03*
X2504Y3868D02*
D03*
X2324Y3871D02*
D03*
X2141D02*
D03*
X2504Y4054D02*
D03*
X2324Y4056D02*
D03*
X2141D02*
D03*
X2504Y4237D02*
D03*
X2324Y4239D02*
D03*
X2141D02*
D03*
X3416Y4801D02*
D03*
X1346Y4813D02*
D03*
X635Y4674D02*
D03*
X699Y4813D02*
D03*
X851D02*
D03*
X127Y4394D02*
D03*
X3874Y4775D02*
D03*
X3175Y1016D02*
D03*
X2146Y1054D02*
D03*
X3747Y4343D02*
D03*
X2294Y146D02*
D03*
X2184D02*
D03*
X2074D02*
D03*
X2294Y256D02*
D03*
X2184D02*
D03*
X2074D02*
D03*
X2294Y356D02*
D03*
X2074D02*
D03*
X2294Y456D02*
D03*
X2184D02*
D03*
X2074D02*
D03*
X2294Y566D02*
D03*
X2184D02*
D03*
X2074D02*
D03*
X2184Y356D02*
D03*
D65*
X229Y3188D02*
D03*
Y2603D02*
D03*
X4734Y1466D02*
D03*
Y2342D02*
D03*
Y3218D02*
D03*
X229Y2896D02*
D03*
X4734Y1174D02*
D03*
Y3511D02*
D03*
X229Y3772D02*
D03*
X216Y1503D02*
D03*
Y1210D02*
D03*
X4734Y2050D02*
D03*
Y2634D02*
D03*
X229Y3480D02*
D03*
X4734Y882D02*
D03*
Y1758D02*
D03*
Y2926D02*
D03*
X216Y1795D02*
D03*
Y918D02*
D03*
D66*
X4128Y4737D02*
D03*
D68*
X300Y4700D02*
D03*
Y300D02*
D03*
X4700D02*
D03*
Y4700D02*
D03*
M02*
