M48
;Layer_Color=0
;FILE_FORMAT=4:2
METRIC,TZ
;TYPE=PLATED
T01F00S00C0.30
T02F00S00C1.10
T03F00S00C1.15
T04F00S00C2.40
%
T01
X711Y190
Y419
X940Y127
X1346Y1016
X1439Y1178
X1537Y1372
X1867Y1270
X2259Y1269
X2146Y1143
Y1054
X2136Y751
X2184Y566
Y456
Y356
Y256
Y146
X2294
Y256
Y356
Y456
Y566
X2074
Y456
Y356
Y256
Y146
X2633
Y256
Y356
Y456
Y566
X2743
Y456
Y356
Y256
X2853
Y356
Y456
Y566
Y146
X2743
X3124Y775
X3175Y1016
X3239Y1143
X3480Y1270
X3556Y1346
X3404Y1410
X2999Y1285
X2831Y1316
Y1396
X2731
Y1316
X2631
Y1396
X1818Y637
X1588Y622
X1448
X1577Y446
X3759Y140
X4001Y152
Y368
X4181Y268
X3442Y1562
X3305Y1493
X2831Y1476
X2731
X2631
X2667Y1626
X2756Y1689
X2718Y2134
Y2273
X2743Y2489
X2997Y2273
Y2159
X3175
Y2273
X3188Y2896
X3302
X2984Y2883
X2172Y2743
Y2654
Y2553
X2032Y2743
X1930
X1816
X1702
Y2654
Y2565
X1600
Y2476
X1499
Y2565
Y2654
Y2743
X1600
Y2654
X1702Y3061
X1842Y2375
X1994
X1435Y2210
Y2121
X1460Y1626
Y1473
X1537Y1537
Y1702
X2141Y3871
X2324
X2504Y3868
Y4054
X2324Y4056
Y4239
X2504Y4237
X2141Y4239
Y4056
X3416Y3912
X3414Y3787
X3759Y3797
X3747Y4343
X3442Y4559
Y4686
X3416Y4801
X3874Y4775
X4737Y4293
Y4026
X4432Y3772
X1346Y3785
X1245Y3658
X1346Y3531
Y3404
X1321Y3277
Y3150
X1219Y2705
X1346Y2210
Y2121
X1372Y1702
Y1537
X446Y2275
X269
X102Y2108
X243Y4206
X127Y4394
X889Y4381
X1003Y4343
X967Y4117
X1295Y4039
X1346Y4166
Y4813
X851
X838Y4674
X635
X699Y4813
X1016Y3645
T02
X216Y918
X470
X724
Y1210
X470
X216
X4226Y1174
X4480
X4734
Y882
X4480
X4226
Y1466
X4480
X4734
Y1758
X4480
X4226
Y2050
X4480
X4734
Y2342
X4480
X4226
Y2634
X4480
X4734
Y2926
X4480
X4226
Y3218
X4480
X4734
Y3511
X4480
X4226
X737Y3480
X483
X229
Y3188
X483
X737
Y2896
X483
X229
Y2603
X483
X737
X724Y1795
X470
X216
Y1503
X470
X724
X737Y3772
X483
X229
T03
X4128Y3975
Y4229
Y4483
Y4737
T04
X300Y300
X4700
Y4700
X300
M30
