G04*
G04 #@! TF.GenerationSoftware,Altium Limited,Altium Designer,24.6.1 (21)*
G04*
G04 Layer_Color=32896*
%FSLAX42Y42*%
%MOMM*%
G71*
G04*
G04 #@! TF.SameCoordinates,A6C07601-EB4F-4E80-B680-5A307C7D7090*
G04*
G04*
G04 #@! TF.FilePolarity,Positive*
G04*
G01*
G75*
%ADD11C,0.20*%
%ADD13C,0.50*%
%ADD15C,0.15*%
D11*
X2796Y2091D02*
Y2811D01*
X2131Y2091D02*
Y2811D01*
D13*
X2671Y1765D02*
D03*
D15*
X3011Y4585D02*
Y4655D01*
X2976D01*
X2964Y4643D01*
Y4620D01*
X2976Y4608D01*
X3011D01*
X2941Y4632D02*
Y4585D01*
Y4608D01*
X2929Y4620D01*
X2917Y4632D01*
X2906D01*
X2859Y4585D02*
X2836D01*
X2824Y4597D01*
Y4620D01*
X2836Y4632D01*
X2859D01*
X2871Y4620D01*
Y4597D01*
X2859Y4585D01*
X2801Y4562D02*
X2789D01*
X2777Y4573D01*
Y4632D01*
X2696Y4585D02*
X2719D01*
X2731Y4597D01*
Y4620D01*
X2719Y4632D01*
X2696D01*
X2684Y4620D01*
Y4608D01*
X2731D01*
X2614Y4632D02*
X2649D01*
X2661Y4620D01*
Y4597D01*
X2649Y4585D01*
X2614D01*
X2579Y4643D02*
Y4632D01*
X2591D01*
X2567D01*
X2579D01*
Y4597D01*
X2567Y4585D01*
X2462Y4655D02*
Y4585D01*
X2427D01*
X2416Y4597D01*
Y4608D01*
Y4620D01*
X2427Y4632D01*
X2462D01*
X2392D02*
Y4597D01*
X2381Y4585D01*
X2346D01*
Y4573D01*
X2357Y4562D01*
X2369D01*
X2346Y4585D02*
Y4632D01*
X2206Y4655D02*
X2252D01*
Y4620D01*
X2229D01*
X2252D01*
Y4585D01*
X2182D02*
Y4597D01*
X2171D01*
Y4585D01*
X2182D01*
X2054Y4655D02*
Y4585D01*
Y4608D01*
X2008Y4655D01*
X2043Y4620D01*
X2008Y4585D01*
X1984Y4632D02*
Y4597D01*
X1973Y4585D01*
X1938D01*
Y4632D01*
X1914Y4585D02*
X1891D01*
X1903D01*
Y4655D01*
X1914D01*
X1856Y4585D02*
Y4655D01*
Y4608D02*
X1821Y4632D01*
X1856Y4608D02*
X1821Y4585D01*
X1774Y4632D02*
X1751D01*
X1739Y4620D01*
Y4585D01*
X1774D01*
X1786Y4597D01*
X1774Y4608D01*
X1739D01*
X1067Y848D02*
X968D01*
X1067Y853D02*
X968D01*
X1067Y834D02*
Y882D01*
X1063Y896D01*
X1053Y905D01*
X1044Y910D01*
X1029Y915D01*
X1006D01*
X991Y910D01*
X982Y905D01*
X972Y896D01*
X968Y882D01*
Y834D01*
X1067Y882D02*
X1063Y891D01*
X1053Y901D01*
X1044Y905D01*
X1029Y910D01*
X1006D01*
X991Y905D01*
X982Y901D01*
X972Y891D01*
X968Y882D01*
X1048Y933D02*
X1044Y938D01*
X1039Y933D01*
X1044Y928D01*
X1048D01*
X1058Y933D01*
X1063Y938D01*
X1067Y952D01*
Y971D01*
X1063Y985D01*
X1058Y990D01*
X1048Y995D01*
X1039D01*
X1029Y990D01*
X1020Y976D01*
X1010Y952D01*
X1006Y942D01*
X996Y933D01*
X982Y928D01*
X968D01*
X1067Y971D02*
X1063Y981D01*
X1058Y985D01*
X1048Y990D01*
X1039D01*
X1029Y985D01*
X1020Y971D01*
X1010Y952D01*
X977Y928D02*
X982Y933D01*
Y942D01*
X972Y966D01*
Y981D01*
X977Y990D01*
X982Y995D01*
X991D01*
X982Y942D02*
X968Y966D01*
Y985D01*
X972Y990D01*
X982Y995D01*
M02*
